<svg preserveAspectRatio="none" overflow="visible" style="display: block;" width="123.511" height="26.0585" viewBox="0 0 123.511 26.0585" fill="none" xmlns="http://www.w3.org/2000/svg">
<g id="Logo mark">
<path id="Logo mark_2" d="M37.6614 2.98023e-08C34.5105 0.196285 33.1434 1.71145 32.1176 2.78763C31.0184 3.93633 30.4073 6.35557 30.4073 6.35557V0.049313H18.123C17.1948 0.049313 16.315 0.439949 15.6557 1.36916C14.9721 2.2742 12.1635 6.91832 12.1635 6.91832H60.7422V2.98023e-08H37.6614ZM98.8183 2.98023e-08C95.6926 0.196285 94.3004 1.71145 93.2746 2.78763C92.1753 3.93633 91.5643 6.35557 91.5643 6.35557V6.91832H123.511V2.98023e-08H98.8183ZM61.9381 0.0251401V6.91832H68.8509V0.0251401H61.9381ZM84.6042 0.0251401V6.91832H91.4908V0.0251401H84.6042ZM11.8696 7.33409L0 26.0102H8.10869L19.5394 8.16468L11.8696 7.33409ZM62.0116 7.43175V17.4877C62.001 17.2818 61.9874 16.9898 61.9874 16.9898C61.8163 15.9629 59.8624 11.4164 55.6616 11.0248C53.1459 10.7802 30.7496 8.99623 30.7496 8.99623C31.1895 11.2453 32.1911 12.394 32.8747 13.0293C34.438 14.5202 36.9044 14.9612 36.9044 14.9612C37.4902 15.0095 54.1717 16.4028 54.1717 16.4028C54.7092 16.427 55.7109 16.574 55.6867 17.8938C55.6867 18.065 55.5397 19.2146 54.2693 19.2146H30.1144V8.94692L23.3979 8.45862C23.3738 8.45862 23.3738 26.0102 23.3738 26.0102H55.6616C61.2788 24.8856 61.8656 19.7523 61.8656 19.7523C61.9642 19.1914 61.9981 18.6973 62.0116 18.2593V19.6788C63.1109 25.5451 68.411 26.0102 68.411 26.0102C68.411 26.0102 68.9485 26.0343 69.0462 26.0585H84.7995C84.7995 26.0585 91.5401 25.5209 91.5401 19.0184L91.4908 9.412L84.7018 8.99623V16.9898C84.7018 16.9898 84.6767 19.2872 82.4549 19.2872H70.829C70.829 19.2872 68.8509 19.116 68.8509 17.0139V7.92101L62.0116 7.43175ZM91.98 9.412C92.6394 11.7336 93.5434 12.4433 94.2269 13.0786C95.7902 14.5937 98.1096 14.936 98.1096 14.936C98.6965 14.9853 115.549 16.4028 115.549 16.4028C116.086 16.427 117.185 16.4763 117.185 17.7962C117.185 18.1878 116.99 18.6036 116.745 18.823C116.745 18.823 116.159 19.1412 115.597 19.1412H91.6136L91.5401 26.0585H116.257C122.461 25.692 123.34 19.8006 123.34 19.8006C123.559 18.2613 123.389 16.9898 123.389 16.9898C123.218 15.5964 121.24 11.3913 117.014 10.9765C114.523 10.7319 91.98 9.412 91.98 9.412Z" fill="#14121C"/>
</g>
</svg>
