<svg viewBox="0 0 45.0393 35.9961" fill="none" xmlns="http://www.w3.org/2000/svg">
<g id="Group">
<path id="path3113" d="M22.518 3.43582C21.8159 1.68272 20.1054 -0.210605 16.9018 0.0494865C12.8209 0.493127 11.5491 4.40401 12.166 6.73713C10.5406 5.63654 7.77688 5.1526 5.36459 7.21894C2.24992 10.3411 3.91593 14.5635 5.62815 15.5763C3.74112 15.4016 0.758711 16.6767 0.0989381 20.0122C-0.60293 24.1535 2.55403 26.5677 5.62815 26.5677H39.7166C43.2714 26.5677 45.2436 23.4924 45.0224 20.5922C44.6737 16.807 41.21 15.3548 39.3206 15.666C40.8991 14.7852 43.0073 10.6482 39.8016 7.39587C37.257 4.97542 34.013 5.85614 32.8724 6.9118C33.4873 4.88981 32.479 0.710095 28.3518 0.0490363C28.0664 0.0170953 27.7917 0 27.53 0C24.3794 0.000449874 22.9626 2.30355 22.518 3.43582Z" fill="var(--fill-0, white)"/>
<path id="path3115" d="M5.93215 7.87773C4.13246 9.50692 3.47745 13.1985 6.72175 15.3564L19.6647 24.2363L13.3891 9.85872C12.074 6.46596 8.47645 5.72611 5.93215 7.87773Z" fill="var(--fill-0, #F37021)"/>
<path id="path3117" d="M17.0734 0.887944C14.9696 0.93081 11.8104 3.43616 13.2163 7.26189L19.707 22.5696L21.9878 6.46883C22.5156 2.46816 19.488 0.621361 17.0734 0.887944Z" fill="var(--fill-0, #CC004C)"/>
<path id="path3119" d="M23.0007 5.85386H24.228C24.228 5.85386 24.8834 5.85386 24.9726 6.16305C24.4897 6.55746 23.1751 6.60689 23.3496 8.71365L25.4128 22.5665L31.8592 7.21865C33.1778 3.79177 30.4101 0.929793 27.955 0.842325C27.8403 0.834099 27.7252 0.827415 27.6061 0.827415C25.4025 0.827351 22.8773 2.42884 23.0007 5.85386Z" fill="var(--fill-0, #6460AA)"/>
<path id="path3121" d="M31.5995 9.9896L25.5023 24.1946L38.4415 15.268C41.4241 13.1524 40.9431 9.77012 39.2735 8.09826C38.5735 7.31137 37.2884 6.70352 35.927 6.70352C34.3186 6.7032 32.5973 7.55629 31.5995 9.9896Z" fill="var(--fill-0, #0089D0)"/>
<path id="path3123" d="M36.9929 17.2888L24.8415 25.7765H39.8034C42.873 25.7765 44.8456 22.6115 43.9687 19.7071C43.3814 17.8816 41.6437 16.4485 39.6268 16.4465C38.7778 16.4468 37.8775 16.7025 36.9929 17.2888Z" fill="var(--fill-0, #0DB14B)"/>
<path id="path3125" d="M5.58341 25.7766H20.3246L8.17006 17.289C5.36207 15.4848 2.20472 16.5405 1.06487 19.5344C0.0986694 22.9616 2.51109 25.7766 5.58341 25.7766Z" fill="var(--fill-0, #FCB711)"/>
<path id="Vector" d="M0.047074 31.9193C0.047074 33.3648 1.22877 35.996 5.74088 35.996C9.90093 35.996 11.2148 34.0871 11.2148 33.2118H7.99417C7.99417 33.2118 7.84121 34.3682 6.02443 34.3682C4.20648 34.3682 3.71484 32.8508 3.71484 31.9733C3.71484 31.0992 4.20648 29.6637 6.02443 29.6637C7.84121 29.6637 7.99417 30.6705 7.99417 30.6705H11.2148C11.2148 29.7942 10.2508 27.9123 5.74088 27.9123C1.22877 27.9123 0.047074 30.7145 0.047074 31.9193Z" fill="var(--fill-0, #292526)"/>
<path id="Vector_2" d="M33.8237 31.9193C33.8237 33.3648 35.0066 35.996 39.5175 35.996C43.6771 35.996 44.9915 34.0871 44.9915 33.2118H41.7731C41.7731 33.2118 41.6195 34.3682 39.8022 34.3682C37.9841 34.3682 37.4919 32.8508 37.4919 31.9733C37.4919 31.0992 37.9841 29.6637 39.8022 29.6637C41.6195 29.6637 41.7731 30.6705 41.7731 30.6705H44.9915C44.9915 29.7942 44.0285 27.9123 39.5175 27.9123C35.0066 27.9123 33.8237 30.7145 33.8237 31.9193Z" fill="var(--fill-0, #292526)"/>
<path id="Vector_3" d="M20.0168 28.0469V32.9403L16.2687 28.0469H12.0523V35.7977H14.9429V30.848L18.6254 35.7977H22.9076V28.0469H20.0168Z" fill="var(--fill-0, #292526)"/>
<path id="Vector_4" d="M29.2798 33.946V33.9562H26.8713V32.5331H29.2798V32.5377C29.7941 32.5377 30.2097 32.8538 30.2097 33.243C30.2097 33.6312 29.7941 33.946 29.2798 33.946ZM26.8934 29.5544H29.2141V29.5577C29.6073 29.5577 29.9261 29.8163 29.9261 30.1347C29.9261 30.4543 29.6073 30.7107 29.2141 30.7107V30.7142H26.8934V29.5544ZM31.6453 31.6771C32.1715 31.6771 33.2718 31.0662 33.2718 29.8828C33.2718 28.1976 30.1338 28.0469 29.6524 28.0469H23.8708V35.7977H29.6524C32.4331 35.7977 33.5502 34.9192 33.5502 33.4522C33.5502 31.9852 31.6453 31.6771 31.6453 31.6771Z" fill="var(--fill-0, #292526)"/>
</g>
</svg>
